<svg xmlns="http://www.w3.org/2000/svg" xmlns:xlink="http://www.w3.org/1999/xlink" width="500" zoomAndPan="magnify" viewBox="0 0 375 374.999991" height="500" preserveAspectRatio="xMidYMid meet" version="1.0"><defs><g/></defs><g fill="#e1a730" fill-opacity="1"><g transform="translate(71.540621, 207.516948)"><g><path d="M 206.59375 -34.9375 C 201.726562 -35.5 196.820312 -35.78125 191.875 -35.78125 C 189.707031 -35.851562 187.503906 -35.914062 185.265625 -35.96875 C 164.859375 -36.8125 144.394531 -37.03125 123.875 -36.625 C 122.863281 -36.625 122.023438 -36.625 121.359375 -36.625 C 120.234375 -36.695312 119.414062 -36.6875 118.90625 -36.59375 C 118.394531 -36.507812 117.988281 -36.226562 117.6875 -35.75 C 117.382812 -35.28125 117.03125 -34.515625 116.625 -33.453125 C 116.34375 -32.835938 116.007812 -32.070312 115.625 -31.15625 C 112.207031 -23.707031 109.070312 -16.140625 106.21875 -8.453125 C 104.363281 -3.484375 102.925781 1.613281 101.90625 6.84375 C 101.519531 8.46875 101.382812 10.050781 101.5 11.59375 C 101.613281 13.132812 102.304688 14.519531 103.578125 15.75 C 103.765625 15.875 103.832031 16.03125 103.78125 16.21875 C 103.726562 16.414062 103.613281 16.597656 103.4375 16.765625 C 103.257812 16.929688 103.066406 17.035156 102.859375 17.078125 C 99.828125 17.546875 98.003906 16.46875 97.390625 13.84375 C 97.035156 12.363281 96.972656 10.84375 97.203125 9.28125 C 97.203125 9.15625 97.203125 9.066406 97.203125 9.015625 C 97.429688 6.335938 97.90625 3.679688 98.625 1.046875 C 99.351562 -1.585938 100.164062 -4.226562 101.0625 -6.875 C 103.9375 -14.832031 107.109375 -22.679688 110.578125 -30.421875 C 110.753906 -30.753906 110.894531 -31.085938 111 -31.421875 C 111.175781 -31.804688 111.367188 -32.203125 111.578125 -32.609375 C 111.859375 -33.171875 112.113281 -33.726562 112.34375 -34.28125 C 112.570312 -34.84375 112.660156 -35.429688 112.609375 -36.046875 C 112.328125 -36.273438 112.046875 -36.414062 111.765625 -36.46875 C 111.484375 -36.519531 111.203125 -36.519531 110.921875 -36.46875 C 110.867188 -36.46875 110.804688 -36.46875 110.734375 -36.46875 C 108.335938 -36.46875 105.929688 -36.441406 103.515625 -36.390625 C 102.847656 -36.390625 102.144531 -36.390625 101.40625 -36.390625 C 100.507812 -36.335938 99.753906 -36.054688 99.140625 -35.546875 C 98.535156 -35.035156 97.953125 -34.410156 97.390625 -33.671875 C 96.648438 -32.734375 95.910156 -31.789062 95.171875 -30.84375 C 92.035156 -26.84375 88.878906 -22.878906 85.703125 -18.953125 C 80.984375 -13.242188 76.054688 -7.738281 70.921875 -2.4375 C 65.785156 2.851562 60.335938 7.816406 54.578125 12.453125 C 47.347656 18.421875 39.664062 23.671875 31.53125 28.203125 C 19.09375 34.878906 6.0625 38.039062 -7.5625 37.6875 C -20.40625 37.40625 -31.988281 33.941406 -42.3125 27.296875 C -45.21875 25.429688 -47.789062 23.1875 -50.03125 20.5625 C -51.539062 18.707031 -52.734375 16.703125 -53.609375 14.546875 C -54.484375 12.390625 -54.921875 10.050781 -54.921875 7.53125 C -54.796875 4.5 -54.101562 1.691406 -52.84375 -0.890625 C -51.582031 -3.484375 -49.832031 -5.835938 -47.59375 -7.953125 C -44.507812 -10.929688 -41.117188 -13.453125 -37.421875 -15.515625 C -33.828125 -17.609375 -30.125 -19.4375 -26.3125 -21 C -22.507812 -22.570312 -18.671875 -23.96875 -14.796875 -25.1875 C -8.523438 -27.195312 -2.191406 -28.890625 4.203125 -30.265625 C 10.597656 -31.648438 17.019531 -32.828125 23.46875 -33.796875 C 38.757812 -35.910156 54.085938 -37.3125 69.453125 -38 C 77.296875 -38.476562 85.117188 -38.71875 92.921875 -38.71875 C 95.054688 -38.664062 96.710938 -39.570312 97.890625 -41.4375 C 99.953125 -44.34375 102.03125 -47.257812 104.125 -50.1875 C 107.351562 -54.675781 110.535156 -59.238281 113.671875 -63.875 C 128.253906 -85.632812 142.21875 -107.753906 155.5625 -130.234375 C 156.6875 -132.140625 157.785156 -134.070312 158.859375 -136.03125 C 159.367188 -137.03125 159.90625 -138.039062 160.46875 -139.0625 C 161.125 -140.351562 162.179688 -141.078125 163.640625 -141.234375 C 164.421875 -141.234375 164.992188 -141.007812 165.359375 -140.5625 C 165.734375 -140.113281 165.78125 -139.519531 165.5 -138.78125 C 165.226562 -138.175781 164.910156 -137.59375 164.546875 -137.03125 C 162.378906 -133.15625 160.457031 -129.226562 158.78125 -125.25 C 158.144531 -123.851562 157.519531 -122.476562 156.90625 -121.125 C 151.019531 -108.363281 145.109375 -95.585938 139.171875 -82.796875 C 134.628906 -72.929688 130.054688 -63.039062 125.453125 -53.125 C 124.128906 -50.195312 122.816406 -47.28125 121.515625 -44.375 C 121.234375 -43.757812 120.953125 -43.175781 120.671875 -42.625 C 120.617188 -42.488281 120.566406 -42.347656 120.515625 -42.203125 C 120.335938 -41.796875 120.191406 -41.394531 120.078125 -41 C 119.960938 -40.601562 119.992188 -40.210938 120.171875 -39.828125 C 120.554688 -39.546875 121.003906 -39.390625 121.515625 -39.359375 C 122.023438 -39.335938 122.492188 -39.328125 122.921875 -39.328125 C 123.285156 -39.378906 123.601562 -39.40625 123.875 -39.40625 C 125.988281 -39.351562 128.117188 -39.351562 130.265625 -39.40625 C 133.171875 -39.40625 136.085938 -39.378906 139.015625 -39.328125 C 154.921875 -39.046875 170.835938 -38.703125 186.765625 -38.296875 C 191.984375 -38.191406 197.164062 -37.976562 202.3125 -37.65625 C 202.769531 -37.601562 203.253906 -37.578125 203.765625 -37.578125 C 204.046875 -37.578125 204.351562 -37.578125 204.6875 -37.578125 C 205.34375 -37.578125 205.984375 -37.519531 206.609375 -37.40625 C 207.234375 -37.289062 207.828125 -37.066406 208.390625 -36.734375 C 208.492188 -36.660156 208.570312 -36.539062 208.625 -36.375 C 208.675781 -36.207031 208.675781 -36.070312 208.625 -35.96875 C 208.625 -35.789062 208.550781 -35.628906 208.40625 -35.484375 C 208.269531 -35.347656 208.148438 -35.253906 208.046875 -35.203125 C 207.585938 -35.023438 207.101562 -34.9375 206.59375 -34.9375 Z M 92.65625 -34.515625 C 92.832031 -34.867188 92.847656 -35.1875 92.703125 -35.46875 C 92.566406 -35.75 92.332031 -35.890625 92 -35.890625 C 91.488281 -35.941406 90.953125 -35.941406 90.390625 -35.890625 C 90.117188 -35.890625 89.84375 -35.890625 89.5625 -35.890625 C 70.320312 -35.660156 51.066406 -34.335938 31.796875 -31.921875 C 24.429688 -31.023438 17.101562 -29.847656 9.8125 -28.390625 C 2.53125 -26.941406 -4.6875 -25.125 -11.84375 -22.9375 C -15.664062 -21.757812 -19.4375 -20.410156 -23.15625 -18.890625 C -26.882812 -17.378906 -30.519531 -15.582031 -34.0625 -13.5 C -37.75 -11.425781 -41.109375 -8.898438 -44.140625 -5.921875 C -47.679688 -2.273438 -49.675781 1.601562 -50.125 5.71875 C -50.570312 9.832031 -49.472656 13.800781 -46.828125 17.625 C -44.859375 20.300781 -42.515625 22.59375 -39.796875 24.5 C -29.859375 31.5625 -18.019531 35.15625 -4.28125 35.28125 C -0.757812 35.28125 3.273438 34.820312 7.828125 33.90625 C 12.367188 32.957031 16.753906 31.570312 20.984375 29.75 C 25.210938 27.9375 29.316406 25.789062 33.296875 23.3125 C 43.109375 17.269531 52.191406 10.238281 60.546875 2.21875 C 66.328125 -3.207031 71.78125 -8.921875 76.90625 -14.921875 C 82.03125 -20.921875 87 -27.03125 91.8125 -33.25 C 92.09375 -33.707031 92.375 -34.128906 92.65625 -34.515625 Z M 116.046875 -42.421875 C 119.742188 -50.835938 123.550781 -59.222656 127.46875 -67.578125 C 127.644531 -68.035156 128.238281 -69.351562 129.25 -71.53125 C 130.257812 -73.707031 131.421875 -76.242188 132.734375 -79.140625 C 134.046875 -82.035156 135.25 -84.769531 136.34375 -87.34375 C 137.4375 -89.914062 138.207031 -91.84375 138.65625 -93.125 C 139.101562 -94.414062 138.96875 -94.539062 138.25 -93.5 C 138.070312 -93.269531 137.929688 -93.039062 137.828125 -92.8125 C 137.222656 -91.914062 136.640625 -91.019531 136.078125 -90.125 C 131.410156 -82.894531 126.71875 -75.671875 122 -68.453125 C 117.289062 -61.242188 112.414062 -54.132812 107.375 -47.125 C 106.882812 -46.46875 106.382812 -45.769531 105.875 -45.03125 C 104.90625 -43.707031 103.953125 -42.367188 103.015625 -41.015625 C 102.628906 -40.453125 102.519531 -39.984375 102.6875 -39.609375 C 102.851562 -39.242188 103.242188 -39.0625 103.859375 -39.0625 C 104.867188 -39.0625 105.875 -39.085938 106.875 -39.140625 C 108.445312 -39.265625 110.015625 -39.328125 111.578125 -39.328125 C 112.773438 -39.273438 113.703125 -39.53125 114.359375 -40.09375 C 115.023438 -40.65625 115.585938 -41.429688 116.046875 -42.421875 Z M 116.046875 -42.421875 "/></g></g><g transform="translate(192.699991, 207.516948)"><g><path d="M 39.9375 -19.15625 C 40.832031 -19.707031 41.535156 -19.84375 42.046875 -19.5625 C 42.554688 -19.289062 42.363281 -18.503906 41.46875 -17.203125 C 40.351562 -15.691406 38.347656 -14.082031 35.453125 -12.375 C 32.554688 -10.675781 30 -9.929688 27.78125 -10.140625 C 25.570312 -10.359375 24.929688 -11.992188 25.859375 -15.046875 C 26.785156 -18.109375 27.285156 -19.820312 27.359375 -20.1875 C 27.441406 -20.5625 27.375 -20.773438 27.15625 -20.828125 C 26.9375 -20.878906 26.429688 -20.625 25.640625 -20.0625 C 23.347656 -18.488281 21.109375 -16.832031 18.921875 -15.09375 C 17.972656 -14.382812 17.039062 -13.632812 16.125 -12.84375 C 15.570312 -12.332031 14.988281 -11.820312 14.375 -11.3125 C 14.375 -11.3125 14.347656 -11.285156 14.296875 -11.234375 C 13.628906 -10.578125 12.8125 -10.132812 11.84375 -9.90625 C 11.414062 -9.769531 10.957031 -9.722656 10.46875 -9.765625 C 9.988281 -9.804688 9.582031 -9.988281 9.25 -10.3125 C 8.863281 -10.695312 8.722656 -11.097656 8.828125 -11.515625 C 8.929688 -11.941406 9.25 -12.570312 9.78125 -13.40625 C 10.320312 -14.25 10.914062 -15.175781 11.5625 -16.1875 C 12.207031 -17.195312 12.566406 -17.816406 12.640625 -18.046875 C 12.722656 -18.273438 12.6875 -18.503906 12.53125 -18.734375 C 12.351562 -18.960938 12.15625 -19.03125 11.9375 -18.9375 C 11.726562 -18.851562 10.921875 -18.304688 9.515625 -17.296875 C 8.117188 -16.285156 6.207031 -14.878906 3.78125 -13.078125 C 2.664062 -12.234375 1.570312 -11.363281 0.5 -10.46875 C 0.21875 -10.1875 -0.0859375 -9.929688 -0.421875 -9.703125 C -1.210938 -9.046875 -2.078125 -8.691406 -3.015625 -8.640625 C -3.703125 -8.585938 -4.210938 -8.738281 -4.546875 -9.09375 C -4.878906 -9.445312 -4.929688 -9.929688 -4.703125 -10.546875 C -4.546875 -11.003906 -4.351562 -11.425781 -4.125 -11.8125 C -4 -11.988281 -3.910156 -12.164062 -3.859375 -12.34375 C -1.847656 -16.425781 0.140625 -20.515625 2.109375 -24.609375 C 2.148438 -24.710938 2.195312 -24.851562 2.25 -25.03125 C 2.476562 -25.46875 2.707031 -25.890625 2.9375 -26.296875 C 3.550781 -26.960938 4.28125 -27.179688 5.125 -26.953125 C 6.09375 -26.671875 6.460938 -26.109375 6.234375 -25.265625 C 5.773438 -23.992188 5.328125 -22.734375 4.890625 -21.484375 C 4.660156 -20.921875 4.429688 -20.359375 4.203125 -19.796875 C 3.816406 -18.804688 3.691406 -18.171875 3.828125 -17.890625 C 3.972656 -17.609375 4.609375 -17.800781 5.734375 -18.46875 C 6.492188 -18.96875 7.242188 -19.472656 7.984375 -19.984375 C 8.878906 -20.597656 9.75 -21.160156 10.59375 -21.671875 C 11.882812 -22.460938 13.207031 -23.140625 14.5625 -23.703125 C 15.226562 -23.984375 15.910156 -24.191406 16.609375 -24.328125 C 17.304688 -24.472656 17.960938 -24.3125 18.578125 -23.84375 C 19.035156 -23.46875 19.234375 -23.035156 19.171875 -22.546875 C 19.109375 -22.066406 18.972656 -21.609375 18.765625 -21.171875 C 18.410156 -20.335938 18.265625 -19.800781 18.328125 -19.5625 C 18.390625 -19.332031 18.585938 -19.285156 18.921875 -19.421875 C 19.253906 -19.566406 19.835938 -19.894531 20.671875 -20.40625 C 21.515625 -20.914062 22.421875 -21.476562 23.390625 -22.09375 C 24.617188 -22.882812 25.90625 -23.632812 27.25 -24.34375 C 28.375 -25.082031 29.570312 -25.53125 30.84375 -25.6875 C 32.601562 -25.8125 33.320312 -25.101562 33 -23.5625 C 32.6875 -22.019531 32.070312 -20.1875 31.15625 -18.0625 C 30.238281 -15.9375 30.140625 -14.628906 30.859375 -14.140625 C 31.585938 -13.660156 33.203125 -14.316406 35.703125 -16.109375 C 38.203125 -17.910156 39.613281 -18.925781 39.9375 -19.15625 Z M 39.9375 -19.15625 "/></g></g><g transform="translate(233.137409, 207.516948)"><g><path d="M 21.78125 -14.671875 C 20.3125 -13.222656 18.59375 -11.984375 16.625 -10.953125 C 14.664062 -9.921875 13.019531 -9.242188 11.6875 -8.921875 C 10.363281 -8.609375 9.003906 -8.425781 7.609375 -8.375 C 5.367188 -8.269531 3.304688 -8.570312 1.421875 -9.28125 C -1.660156 -10.53125 -2.734375 -12.914062 -1.796875 -16.4375 C -0.898438 -19.46875 0.90625 -21.835938 3.625 -23.546875 C 6.351562 -25.253906 9.171875 -26.082031 12.078125 -26.03125 C 12.078125 -26.03125 12.101562 -26.03125 12.15625 -26.03125 C 12.894531 -26.082031 13.59375 -26.03125 14.25 -25.875 C 15.375 -25.46875 16.085938 -24.804688 16.390625 -23.890625 C 16.703125 -22.972656 16.5 -21.953125 15.78125 -20.828125 C 14.15625 -18.359375 11.941406 -16.984375 9.140625 -16.703125 C 7.273438 -16.523438 5.476562 -16.613281 3.75 -16.96875 C 3.414062 -17.019531 3.117188 -16.929688 2.859375 -16.703125 C 2.609375 -16.472656 2.457031 -16.191406 2.40625 -15.859375 C 1.894531 -13.671875 2.570312 -12.269531 4.4375 -11.65625 C 6.726562 -10.863281 9.109375 -10.863281 11.578125 -11.65625 C 14.429688 -12.550781 17.144531 -14.234375 19.71875 -16.703125 C 22.289062 -19.171875 23.773438 -20.320312 24.171875 -20.15625 C 24.566406 -20 24.691406 -19.523438 24.546875 -18.734375 C 24.179688 -17.484375 23.257812 -16.128906 21.78125 -14.671875 Z M 5.5 -20.828125 C 5.351562 -20.648438 5.242188 -20.453125 5.171875 -20.234375 C 5.109375 -20.023438 5.191406 -19.828125 5.421875 -19.640625 C 6.316406 -19.128906 7.285156 -18.941406 8.328125 -19.078125 C 9.378906 -19.222656 10.265625 -19.617188 10.984375 -20.265625 C 11.710938 -20.921875 12.023438 -21.722656 11.921875 -22.671875 C 11.847656 -22.992188 11.671875 -23.203125 11.390625 -23.296875 C 11.109375 -23.390625 10.828125 -23.410156 10.546875 -23.359375 C 8.660156 -23.023438 6.976562 -22.179688 5.5 -20.828125 Z M 5.5 -20.828125 "/></g></g><g transform="translate(255.38181, 207.516948)"><g><path d="M 18.5 -18.234375 C 19.34375 -19.078125 20.039062 -19.546875 20.59375 -19.640625 C 21.15625 -19.742188 21.519531 -19.65625 21.6875 -19.375 C 21.851562 -19.09375 21.742188 -18.710938 21.359375 -18.234375 C 19.117188 -15.535156 16.609375 -13.203125 13.828125 -11.234375 C 11.054688 -9.273438 8.195312 -8.140625 5.25 -7.828125 C 2.3125 -7.523438 0.535156 -9.132812 -0.078125 -12.65625 C -0.535156 -16.144531 1.578125 -23.253906 6.265625 -33.984375 C 10.953125 -44.710938 14.660156 -53.503906 17.390625 -60.359375 C 17.617188 -60.960938 17.960938 -61.492188 18.421875 -61.953125 C 19.035156 -62.566406 19.765625 -62.707031 20.609375 -62.375 C 20.878906 -62.25 21.15625 -62.046875 21.4375 -61.765625 C 21.71875 -61.484375 21.804688 -60.988281 21.703125 -60.28125 C 9.648438 -31.6875 3.816406 -16.140625 4.203125 -13.640625 C 4.585938 -11.148438 6.195312 -10.535156 9.03125 -11.796875 C 11.875 -13.054688 14.066406 -14.34375 15.609375 -15.65625 C 17.148438 -16.96875 18.113281 -17.828125 18.5 -18.234375 Z M 18.5 -18.234375 "/></g></g><g transform="translate(274.4539, 207.516948)"><g><path d="M 15.1875 -16.109375 C 13.832031 -14.492188 12.222656 -13.007812 10.359375 -11.65625 C 8.492188 -10.300781 6.390625 -9.390625 4.046875 -8.921875 C 1.703125 -8.453125 -0.113281 -8.625 -1.40625 -9.4375 C -2.707031 -10.257812 -2.960938 -12.070312 -2.171875 -14.875 C -1.160156 -17.769531 0.238281 -20.53125 2.03125 -23.15625 C 2.4375 -23.71875 3.019531 -24.113281 3.78125 -24.34375 C 4.34375 -24.476562 4.832031 -24.382812 5.25 -24.0625 C 5.675781 -23.738281 5.835938 -23.335938 5.734375 -22.859375 C 5.347656 -21.941406 4.925781 -21.023438 4.46875 -20.109375 C 4.007812 -19.191406 3.707031 -18.59375 3.5625 -18.3125 C 2.664062 -16.675781 2.039062 -14.96875 1.6875 -13.1875 C 1.6875 -12.164062 3.046875 -12.097656 5.765625 -12.984375 C 8.492188 -13.878906 11.144531 -15.519531 13.71875 -17.90625 C 16.289062 -20.289062 17.519531 -20.988281 17.40625 -20 C 17.289062 -19.019531 16.550781 -17.722656 15.1875 -16.109375 Z M 8.53125 -28.890625 C 8.394531 -28.796875 8.128906 -28.675781 7.734375 -28.53125 C 7.335938 -28.394531 6.914062 -28.289062 6.46875 -28.21875 C 6.03125 -28.15625 5.679688 -28.226562 5.421875 -28.4375 C 5.171875 -28.644531 5.160156 -29.050781 5.390625 -29.65625 C 5.796875 -30.726562 6.222656 -31.664062 6.671875 -32.46875 C 7.117188 -33.269531 7.695312 -34.15625 8.40625 -35.125 C 8.863281 -35.5625 9.359375 -35.796875 9.890625 -35.828125 C 10.429688 -35.867188 10.878906 -35.726562 11.234375 -35.40625 C 11.585938 -35.09375 11.691406 -34.65625 11.546875 -34.09375 C 10.984375 -32.082031 9.976562 -30.347656 8.53125 -28.890625 Z M 8.53125 -28.890625 "/></g></g><g transform="translate(289.359943, 207.516948)"><g><path d="M 27.71875 -19.46875 C 28.320312 -19.125 28.367188 -18.289062 27.859375 -16.96875 C 27.117188 -16 26.328125 -15.09375 25.484375 -14.25 C 24.648438 -13.414062 23.738281 -12.664062 22.75 -12 C 22.664062 -12 22.625 -11.972656 22.625 -11.921875 C 21.96875 -11.460938 21.269531 -11.066406 20.53125 -10.734375 C 14.4375 -8.546875 11.328125 -9.832031 11.203125 -14.59375 C 8.722656 -12.457031 7.066406 -11.148438 6.234375 -10.671875 C 4.210938 -9.472656 2.03125 -8.9375 -0.3125 -9.0625 C -2.039062 -9.164062 -3.21875 -9.691406 -3.84375 -10.640625 C -4.46875 -11.597656 -4.410156 -12.894531 -3.671875 -14.53125 C -2.546875 -17.101562 -0.953125 -19.394531 1.109375 -21.40625 C 3.523438 -23.644531 6.210938 -25.441406 9.171875 -26.796875 C 10.753906 -27.585938 12.410156 -27.894531 14.140625 -27.71875 C 15.867188 -27.613281 16.914062 -26.628906 17.28125 -24.765625 C 17.425781 -24.203125 17.285156 -23.707031 16.859375 -23.28125 C 16.296875 -22.769531 15.644531 -22.65625 14.90625 -22.9375 C 14.851562 -22.9375 14.78125 -22.945312 14.6875 -22.96875 C 14.601562 -23 14.535156 -23.039062 14.484375 -23.09375 C 13.742188 -24.101562 13 -24.523438 12.25 -24.359375 C 11.5 -24.203125 10.703125 -23.867188 9.859375 -23.359375 C 5.929688 -21.066406 3.015625 -17.867188 1.109375 -13.765625 C 1.003906 -13.585938 0.9375 -13.390625 0.90625 -13.171875 C 0.882812 -12.953125 0.953125 -12.78125 1.109375 -12.65625 C 1.566406 -12.5 2.078125 -12.53125 2.640625 -12.75 C 3.203125 -12.96875 3.757812 -13.285156 4.3125 -13.703125 C 4.875 -14.117188 5.347656 -14.46875 5.734375 -14.75 C 5.785156 -14.832031 5.8125 -14.875 5.8125 -14.875 C 7.664062 -16.425781 9.488281 -18.015625 11.28125 -19.640625 C 12.0625 -20.484375 13.039062 -20.957031 14.21875 -21.0625 C 15.894531 -21.0625 16.597656 -20.3125 16.328125 -18.8125 C 16.171875 -18.25 16.003906 -17.6875 15.828125 -17.125 C 15.160156 -14.707031 15.132812 -13.285156 15.75 -12.859375 C 16.363281 -12.441406 17.300781 -12.441406 18.5625 -12.859375 C 19.820312 -13.285156 21.082031 -14.085938 22.34375 -15.265625 C 23.601562 -16.453125 24.664062 -17.535156 25.53125 -18.515625 C 26.394531 -19.492188 27.125 -19.8125 27.71875 -19.46875 Z M 27.71875 -19.46875 "/></g></g></g><g fill="#e1a730" fill-opacity="1"><g transform="translate(314.68274, 207.516948)"><g/></g></g><g fill="#e1a730" fill-opacity="1"><g transform="translate(193.531017, 239.960234)"><g><path d="M 3.9375 -9.03125 L 4.6875 -9.03125 L 8.4375 0 L 7.484375 0 L 6.328125 -2.828125 L 2.265625 -2.828125 L 1.109375 0 L 0.15625 0 Z M 6.125 -3.515625 L 4.296875 -7.984375 L 2.453125 -3.515625 Z M 6.125 -3.515625 "/></g></g></g><g fill="#e1a730" fill-opacity="1"><g transform="translate(210.207788, 239.960234)"><g><path d="M 1.125 0 L 1.125 -9.03125 L 4.953125 -9.03125 C 5.335938 -9.03125 5.691406 -8.945312 6.015625 -8.78125 C 6.347656 -8.613281 6.628906 -8.394531 6.859375 -8.125 C 7.097656 -7.863281 7.285156 -7.5625 7.421875 -7.21875 C 7.554688 -6.882812 7.625 -6.539062 7.625 -6.1875 C 7.625 -5.863281 7.570312 -5.550781 7.46875 -5.25 C 7.375 -4.945312 7.238281 -4.671875 7.0625 -4.421875 C 6.882812 -4.179688 6.671875 -3.976562 6.421875 -3.8125 C 6.179688 -3.65625 5.910156 -3.546875 5.609375 -3.484375 L 7.828125 0 L 6.8125 0 L 4.6875 -3.328125 L 2.015625 -3.328125 L 2.015625 0 Z M 2.015625 -4.125 L 4.96875 -4.125 C 5.238281 -4.125 5.476562 -4.179688 5.6875 -4.296875 C 5.90625 -4.410156 6.085938 -4.5625 6.234375 -4.75 C 6.390625 -4.945312 6.507812 -5.164062 6.59375 -5.40625 C 6.6875 -5.65625 6.734375 -5.914062 6.734375 -6.1875 C 6.734375 -6.457031 6.679688 -6.71875 6.578125 -6.96875 C 6.484375 -7.21875 6.351562 -7.4375 6.1875 -7.625 C 6.019531 -7.8125 5.820312 -7.957031 5.59375 -8.0625 C 5.375 -8.175781 5.140625 -8.234375 4.890625 -8.234375 L 2.015625 -8.234375 Z M 2.015625 -4.125 "/></g></g></g><g fill="#e1a730" fill-opacity="1"><g transform="translate(226.592031, 239.960234)"><g><path d="M 7.546875 -8.234375 L 4.328125 -8.234375 L 4.328125 0 L 3.4375 0 L 3.4375 -8.234375 L 0.21875 -8.234375 L 0.21875 -9.03125 L 7.546875 -9.03125 Z M 7.546875 -8.234375 "/></g></g></g><g fill="#e1a730" fill-opacity="1"><g transform="translate(242.429381, 239.960234)"><g><path d="M 6.40625 -7.34375 C 6.15625 -7.625 5.816406 -7.851562 5.390625 -8.03125 C 4.960938 -8.21875 4.476562 -8.3125 3.9375 -8.3125 C 3.144531 -8.3125 2.566406 -8.160156 2.203125 -7.859375 C 1.835938 -7.554688 1.65625 -7.144531 1.65625 -6.625 C 1.65625 -6.351562 1.703125 -6.128906 1.796875 -5.953125 C 1.898438 -5.785156 2.050781 -5.632812 2.25 -5.5 C 2.457031 -5.375 2.71875 -5.265625 3.03125 -5.171875 C 3.351562 -5.078125 3.726562 -4.984375 4.15625 -4.890625 C 4.644531 -4.796875 5.082031 -4.679688 5.46875 -4.546875 C 5.851562 -4.421875 6.179688 -4.265625 6.453125 -4.078125 C 6.722656 -3.890625 6.925781 -3.65625 7.0625 -3.375 C 7.207031 -3.101562 7.28125 -2.765625 7.28125 -2.359375 C 7.28125 -1.953125 7.195312 -1.59375 7.03125 -1.28125 C 6.875 -0.976562 6.648438 -0.722656 6.359375 -0.515625 C 6.078125 -0.316406 5.738281 -0.164062 5.34375 -0.0625 C 4.945312 0.03125 4.507812 0.078125 4.03125 0.078125 C 2.632812 0.078125 1.425781 -0.359375 0.40625 -1.234375 L 0.859375 -1.953125 C 1.015625 -1.785156 1.203125 -1.625 1.421875 -1.46875 C 1.648438 -1.320312 1.898438 -1.191406 2.171875 -1.078125 C 2.453125 -0.960938 2.75 -0.875 3.0625 -0.8125 C 3.375 -0.75 3.707031 -0.71875 4.0625 -0.71875 C 4.78125 -0.71875 5.335938 -0.84375 5.734375 -1.09375 C 6.140625 -1.351562 6.34375 -1.75 6.34375 -2.28125 C 6.34375 -2.5625 6.285156 -2.796875 6.171875 -2.984375 C 6.054688 -3.171875 5.882812 -3.332031 5.65625 -3.46875 C 5.425781 -3.613281 5.140625 -3.738281 4.796875 -3.84375 C 4.460938 -3.945312 4.070312 -4.046875 3.625 -4.140625 C 3.144531 -4.253906 2.726562 -4.367188 2.375 -4.484375 C 2.019531 -4.609375 1.71875 -4.757812 1.46875 -4.9375 C 1.226562 -5.113281 1.046875 -5.328125 0.921875 -5.578125 C 0.796875 -5.828125 0.734375 -6.132812 0.734375 -6.5 C 0.734375 -6.914062 0.8125 -7.285156 0.96875 -7.609375 C 1.125 -7.941406 1.347656 -8.210938 1.640625 -8.421875 C 1.929688 -8.640625 2.269531 -8.804688 2.65625 -8.921875 C 3.050781 -9.035156 3.484375 -9.09375 3.953125 -9.09375 C 4.554688 -9.09375 5.09375 -9 5.5625 -8.8125 C 6.03125 -8.632812 6.457031 -8.378906 6.84375 -8.046875 Z M 6.40625 -7.34375 "/></g></g></g></svg>